<svg xmlns="http://www.w3.org/2000/svg" viewBox="0 0 43.611 44.068"><path d="M17.088 44.067H2.32A2.323 2.323 0 010 41.747v-10.2a2.323 2.323 0 012.32-2.32h14.768a2.323 2.323 0 012.32 2.32v10.2a2.323 2.323 0 01-2.32 2.32zM2.32 31.276a.266.266 0 00-.265.265v10.2a.266.266 0 00.265.265h14.768a.266.266 0 00.265-.265v-10.2a.266.266 0 00-.265-.265zM41.291 14.841H26.523a2.323 2.323 0 01-2.32-2.32V2.32A2.323 2.323 0 0126.523 0h14.768a2.323 2.323 0 012.32 2.32v10.2a2.323 2.323 0 01-2.32 2.321zM26.523 2.05a.266.266 0 00-.265.265v10.2a.266.266 0 00.265.265h14.768a.266.266 0 00.265-.265V2.32a.266.266 0 00-.265-.265zM41.291 44.068H26.523a2.323 2.323 0 01-2.32-2.32v-20.7a2.323 2.323 0 012.32-2.32h14.768a2.323 2.323 0 012.32 2.32v20.7a2.323 2.323 0 01-2.32 2.32zM26.523 20.773a.266.266 0 00-.265.265v20.7a.266.266 0 00.265.265h14.768a.266.266 0 00.265-.265v-20.7a.266.266 0 00-.265-.265zM17.088 25.345H2.32A2.323 2.323 0 010 23.025V2.32A2.323 2.323 0 012.32 0h14.768a2.323 2.323 0 012.32 2.32v20.7a2.323 2.323 0 01-2.32 2.325zM2.32 2.05a.266.266 0 00-.265.265v20.7a.266.266 0 00.265.265h14.768a.266.266 0 00.265-.265V2.32a.266.266 0 00-.265-.265z"/></svg>